<?xml version="1.0" encoding="UTF-8"?>
<svg id="Layer_1" data-name="Layer 1" xmlns="http://www.w3.org/2000/svg" width="800" height="800" viewBox="0 0 800 800">
  <defs>
    <style>
      .cls-1 {
        fill: #223654;
      }

      .cls-2 {
        fill: #fff;
      }

      .cls-3 {
        fill: #a3ea2a;
      }
    </style>
  </defs>
  <path class="cls-1" d="M744.7,393.93h-330.05l233.38-233.38c6.22-6.22,16.44-5.98,22.28.61,53.55,60.44,84.84,135.99,89.71,216.58.53,8.79-6.52,16.18-15.32,16.18Z"/>
  <path class="cls-1" d="M639.45,151.97l-233.38,233.38V55.3c0-8.8,7.4-15.85,16.18-15.32,80.6,4.87,156.15,36.16,216.58,89.71,6.59,5.84,6.84,16.05.61,22.28Z"/>
  <path class="cls-1" d="M393.93,39.36v345.99l-233.38-233.38c-6.22-6.22-5.98-16.44.61-22.28,64.47-57.12,146.12-88.91,232.77-90.33Z"/>
  <path class="cls-1" d="M129.69,161.16c5.84-6.59,16.05-6.84,22.28-.61l216.67,216.67,16.71,16.71H55.3c-8.8,0-15.85-7.4-15.32-16.18,4.87-80.6,36.16-156.15,89.71-216.58Z"/>
  <path class="cls-1" d="M55.3,406.07h330.05l-16.71,16.71-216.67,216.67c-6.22,6.22-16.44,5.98-22.28-.61-53.55-60.44-84.84-135.99-89.71-216.58-.53-8.79,6.52-16.18,15.32-16.18Z"/>
  <path class="cls-1" d="M160.55,648.03l233.38-233.38v330.05c0,8.8-7.4,15.85-16.18,15.32-80.6-4.87-156.15-36.16-216.58-89.71-6.59-5.84-6.84-16.05-.61-22.28Z"/>
  <path class="cls-1" d="M406.07,744.7v-330.05l233.38,233.38c6.22,6.22,5.98,16.44-.61,22.28-60.44,53.55-135.99,84.84-216.58,89.71-8.79.53-16.18-6.52-16.18-15.32Z"/>
  <path class="cls-1" d="M659.3,650.72l-244.65-244.65h330.05c8.8,0,15.85,7.4,15.32,16.18-5.2,85.97-40.45,166.2-100.72,228.47Z"/>
  <g>
    <path class="cls-3" d="M693.37,589.2c32.91-50.94,51.93-109.54,55.17-170.28.1-1.9,1.7-3.37,3.6-3.29l8.45.37h0s8.55.37,8.55.37h0l8.4.37c1.92.08,3.43,1.72,3.33,3.65-3.51,66.48-24.3,130.63-60.32,186.38l11.33,7.32c2.22,1.43,2.08,4.71-.25,5.97-18.6,10.09-37.53,18.29-56.43,24.64-2.53.85-5.05-1.35-4.52-3.96,3.84-18.94,5.93-37.64,6.38-55.81.07-2.7,3.07-4.28,5.34-2.81l10.96,7.08Z"/>
    <path class="cls-3" d="M321.11,9.91c20.3,6.01,39.47,13.61,57.32,22.47,2.39,1.19,2.62,4.52.39,5.99-16.11,10.69-30.81,22.44-43.97,34.96-1.96,1.87-5.2.86-5.77-1.79l-2.75-12.81c-59.23,12.7-113.94,40.59-159.42,81.43-1.42,1.27-3.59,1.18-4.87-.23l-17.17-18.76c-1.3-1.42-1.2-3.64.23-4.93,49.74-44.72,109.6-75.26,174.44-89.16l-2.82-13.14c-.55-2.58,1.87-4.8,4.4-4.05Z"/>
    <path class="cls-3" d="M106.62,210.8c-32.95,50.95-51.92,109.33-55.17,170.28-.1,1.9-1.7,3.37-3.6,3.29l-25.4-1.11c-1.92-.08-3.43-1.72-3.33-3.65,3.51-66.72,24.26-130.62,60.32-186.38l-11.33-7.32c-2.22-1.43-2.08-4.71.25-5.97,18.6-10.09,37.53-18.29,56.43-24.64,2.53-.85,5.05,1.35,4.52,3.96-3.84,18.94-5.93,37.64-6.38,55.81-.07,2.7-3.07,4.28-5.34,2.81l-10.96-7.08Z"/>
    <path class="cls-3" d="M9.91,478.89c6.01-20.3,13.61-39.47,22.47-57.32,1.19-2.39,4.52-2.62,5.99-.39,10.69,16.11,22.44,30.81,34.96,43.97,1.87,1.96.86,5.2-1.79,5.77l-12.81,2.75c12.72,59.21,40.7,114.06,81.43,159.42,1.27,1.42,1.18,3.59-.23,4.87l-18.76,17.17c-1.42,1.3-3.64,1.2-4.93-.23-44.6-49.61-75.24-109.63-89.16-174.44l-13.14,2.82c-2.58.55-4.8-1.87-4.05-4.4Z"/>
    <path class="cls-3" d="M210.8,693.38c50.95,32.93,109.48,51.92,170.28,55.17,1.9.1,3.37,1.7,3.29,3.6l-.37,8.45h0l-.37,8.55h0l-.37,8.4c-.08,1.92-1.72,3.43-3.65,3.33-66.55-3.51-130.61-24.28-186.38-60.32l-7.32,11.33c-1.43,2.22-4.71,2.08-5.97-.25-10.09-18.6-18.29-37.53-24.64-56.43-.85-2.53,1.35-5.05,3.96-4.52,18.94,3.84,37.64,5.92,55.81,6.38,2.7.07,4.28,3.07,2.81,5.34l-7.09,10.97Z"/>
    <path class="cls-3" d="M473.67,741.26c59.21-12.72,114.06-40.7,159.42-81.43,1.42-1.27,3.59-1.18,4.87.23l5.71,6.24s0,0,0,0l5.78,6.31s0,0,0,0l5.68,6.2c1.3,1.42,1.2,3.64-.23,4.93-49.61,44.6-109.62,75.24-174.44,89.16l2.82,13.14c.55,2.58-1.87,4.8-4.4,4.05-20.3-6.01-39.47-13.61-57.32-22.47-2.39-1.19-2.62-4.52-.39-5.99,16.11-10.69,30.81-22.44,43.97-34.96,1.96-1.87,5.2-.86,5.77,1.79l2.75,12.81Z"/>
    <path class="cls-3" d="M772.91,319.53l13.14-2.82c2.58-.55,4.8,1.86,4.05,4.4-6.01,20.3-13.61,39.47-22.47,57.32-1.19,2.39-4.52,2.62-5.99.39-10.69-16.11-22.44-30.81-34.96-43.97-1.87-1.96-.86-5.2,1.79-5.77l12.81-2.75c-12.71-59.18-40.77-114.13-81.43-159.42-1.27-1.42-1.18-3.59.23-4.87l18.76-17.17c1.42-1.3,3.64-1.2,4.92.23,44.53,49.53,75.25,109.66,89.17,174.44Z"/>
    <path class="cls-3" d="M606.76,79.44l7.32-11.33c1.43-2.22,4.71-2.08,5.97.25,10.09,18.6,18.29,37.53,24.64,56.43.85,2.53-1.35,5.05-3.96,4.52-18.94-3.84-37.64-5.92-55.81-6.38-2.7-.07-4.28-3.07-2.81-5.34l7.08-10.96c-50.96-32.93-109.42-51.92-170.28-55.17-1.9-.1-3.37-1.7-3.29-3.6l1.11-25.4c.08-1.92,1.72-3.43,3.65-3.33,66.62,3.51,130.61,24.27,186.38,60.32Z"/>
  </g>
  <g>
    <g>
      <path class="cls-2" d="M435.81,642.91h4.76c5.07,0,8.4,2.47,8.4,8.22s-3.34,8.35-8.17,8.35h-4.99v-16.57ZM440.35,656.3c2.67,0,4.58-1.25,4.58-5.17s-1.91-5.04-4.58-5.04h-.56v10.21h.56Z"/>
      <path class="cls-2" d="M451.17,655.94c0-2.67,2.06-4.13,7.05-4.63-.1-1.04-.64-1.66-1.93-1.66-1.02,0-2.04.36-3.31,1.07l-1.38-2.55c1.66-1.02,3.46-1.65,5.45-1.65,3.26,0,5.09,1.81,5.09,5.78v7.18h-3.21l-.28-1.27h-.1c-1.04.94-2.19,1.58-3.62,1.58-2.32,0-3.77-1.73-3.77-3.84ZM458.23,655.74v-2.01c-2.52.33-3.28,1.02-3.28,1.91,0,.74.48,1.09,1.35,1.09.79,0,1.32-.38,1.93-.99Z"/>
      <path class="cls-2" d="M465.26,654.8v-4.89h-1.71v-2.95l1.94-.13.46-3.87h3.26v3.87h2.98v3.08h-2.98v4.84c0,1.42.66,1.96,1.6,1.96.41,0,.84-.05,1.17-.18l.61,2.75c-.66.25-1.63.51-2.88.51-3.16,0-4.46-2.01-4.46-4.99Z"/>
      <path class="cls-2" d="M473.57,655.94c0-2.67,2.06-4.13,7.05-4.63-.1-1.04-.64-1.66-1.93-1.66-1.02,0-2.04.36-3.31,1.07l-1.38-2.55c1.66-1.02,3.46-1.65,5.45-1.65,3.26,0,5.09,1.81,5.09,5.78v7.18h-3.21l-.28-1.27h-.1c-1.04.94-2.19,1.58-3.62,1.58-2.32,0-3.77-1.73-3.77-3.84ZM480.62,655.74v-2.01c-2.52.33-3.28,1.02-3.28,1.91,0,.74.48,1.09,1.35,1.09.79,0,1.32-.38,1.93-.99Z"/>
      <path class="cls-2" d="M492.27,651.31c0-5.52,3.72-8.71,7.89-8.71,2.16,0,3.9.97,5.04,2.16l-2.09,2.39c-.81-.76-1.68-1.15-2.85-1.15-2.19,0-3.95,1.94-3.95,5.14s1.55,5.22,3.87,5.22c1.35,0,2.39-.53,3.18-1.37l2.06,2.34c-1.45,1.66-3.28,2.44-5.37,2.44-4.23,0-7.79-2.88-7.79-8.48Z"/>
      <path class="cls-2" d="M507.58,655.38v-13.7h3.92v13.85c0,.81.41,1.07.71,1.07.15,0,.25,0,.46-.05l.46,2.9c-.43.18-1.09.33-1.96.33-2.7,0-3.59-1.76-3.59-4.4Z"/>
      <path class="cls-2" d="M514.25,653.14c0-4.1,2.95-6.62,5.98-6.62,3.67,0,5.45,2.65,5.45,6.08,0,.71-.08,1.37-.15,1.73h-7.46c.36,1.71,1.55,2.44,3.16,2.44.92,0,1.83-.28,2.72-.79l1.27,2.37c-1.32.94-3.06,1.42-4.56,1.42-3.62,0-6.42-2.42-6.42-6.64ZM522.32,651.69c0-1.25-.56-2.19-1.99-2.19-1.12,0-2.06.71-2.32,2.19h4.3Z"/>
      <path class="cls-2" d="M527.37,655.94c0-2.67,2.06-4.13,7.05-4.63-.1-1.04-.64-1.66-1.93-1.66-1.02,0-2.04.36-3.31,1.07l-1.37-2.55c1.66-1.02,3.46-1.65,5.45-1.65,3.26,0,5.09,1.81,5.09,5.78v7.18h-3.21l-.28-1.27h-.1c-1.04.94-2.19,1.58-3.62,1.58-2.32,0-3.77-1.73-3.77-3.84ZM534.42,655.74v-2.01c-2.52.33-3.28,1.02-3.28,1.91,0,.74.49,1.09,1.35,1.09.79,0,1.32-.38,1.93-.99Z"/>
      <path class="cls-2" d="M541.43,646.83h3.21l.28,1.58h.1c1.04-1.02,2.32-1.88,4.05-1.88,2.75,0,3.92,1.96,3.92,5.12v7.84h-3.95v-7.33c0-1.76-.46-2.29-1.48-2.29-.89,0-1.43.43-2.22,1.14v8.48h-3.92v-12.65Z"/>
      <path class="cls-2" d="M555.83,643.01c0-1.22.92-2.01,2.21-2.01s2.22.79,2.22,2.01-.92,2.04-2.22,2.04-2.21-.79-2.21-2.04ZM556.08,646.83h3.92v12.65h-3.92v-12.65Z"/>
      <path class="cls-2" d="M563.21,646.83h3.21l.28,1.58h.1c1.04-1.02,2.32-1.88,4.05-1.88,2.75,0,3.92,1.96,3.92,5.12v7.84h-3.95v-7.33c0-1.76-.46-2.29-1.48-2.29-.89,0-1.42.43-2.21,1.14v8.48h-3.92v-12.65Z"/>
      <path class="cls-2" d="M577.1,661.62c0-1.04.61-1.88,1.78-2.5v-.1c-.66-.46-1.15-1.12-1.15-2.16,0-.89.59-1.81,1.4-2.39v-.1c-.89-.61-1.71-1.78-1.71-3.26,0-3.08,2.55-4.58,5.29-4.58.71,0,1.4.1,1.99.3h4.66v2.85h-1.99c.2.36.38.94.38,1.55,0,2.95-2.24,4.25-5.04,4.25-.43,0-.94-.08-1.5-.23-.28.25-.41.46-.41.87,0,.61.51.89,1.86.89h2.01c3.13,0,4.89.94,4.89,3.23,0,2.67-2.78,4.56-7.18,4.56-2.93,0-5.3-.92-5.3-3.18ZM585.8,660.93c0-.76-.66-.92-1.86-.92h-1.22c-.92,0-1.4-.05-1.78-.15-.41.36-.61.71-.61,1.12,0,.92,1.07,1.37,2.7,1.37s2.77-.61,2.77-1.43ZM584.33,651.1c0-1.3-.66-1.96-1.6-1.96s-1.6.66-1.6,1.96.69,2.01,1.6,2.01,1.6-.69,1.6-2.01Z"/>
    </g>
    <g>
      <g>
        <path class="cls-2" d="M250.52,615.26h10.59v3.31h-6.62v3.62h5.65v3.31h-5.65v6.34h-3.97v-16.57Z"/>
        <path class="cls-2" d="M262.47,625.49c0-4.1,2.95-6.62,5.98-6.62,3.67,0,5.45,2.65,5.45,6.08,0,.71-.08,1.37-.15,1.73h-7.46c.36,1.71,1.55,2.44,3.16,2.44.92,0,1.83-.28,2.72-.79l1.27,2.37c-1.32.94-3.06,1.42-4.56,1.42-3.62,0-6.42-2.42-6.42-6.64ZM270.54,624.04c0-1.25-.56-2.19-1.99-2.19-1.12,0-2.06.71-2.32,2.19h4.3Z"/>
        <path class="cls-2" d="M275.59,628.29c0-2.67,2.06-4.13,7.05-4.63-.1-1.04-.64-1.66-1.93-1.66-1.02,0-2.04.36-3.31,1.07l-1.37-2.55c1.66-1.02,3.46-1.65,5.45-1.65,3.26,0,5.09,1.81,5.09,5.78v7.18h-3.21l-.28-1.27h-.1c-1.04.94-2.19,1.58-3.62,1.58-2.32,0-3.77-1.73-3.77-3.84ZM282.65,628.09v-2.01c-2.52.33-3.28,1.02-3.28,1.91,0,.74.49,1.09,1.35,1.09.79,0,1.32-.38,1.93-.99Z"/>
        <path class="cls-2" d="M289.68,627.15v-4.89h-1.71v-2.95l1.94-.13.46-3.87h3.26v3.87h2.98v3.08h-2.98v4.84c0,1.42.66,1.96,1.6,1.96.41,0,.84-.05,1.17-.18l.61,2.75c-.66.25-1.63.51-2.88.51-3.16,0-4.46-2.01-4.46-4.99Z"/>
        <path class="cls-2" d="M298.93,627.02v-7.84h3.95v7.33c0,1.76.46,2.27,1.48,2.27.89,0,1.43-.36,2.11-1.3v-8.3h3.95v12.65h-3.21l-.28-1.73h-.1c-1.04,1.25-2.24,2.04-3.95,2.04-2.78,0-3.95-1.96-3.95-5.12Z"/>
        <path class="cls-2" d="M313.63,619.18h3.21l.28,2.19h.1c.92-1.7,2.32-2.49,3.59-2.49.74,0,1.17.08,1.53.25l-.74,3.34c-.46-.1-.74-.15-1.3-.15-.94,0-2.09.61-2.75,2.29v7.23h-3.92v-12.65Z"/>
        <path class="cls-2" d="M322.98,625.49c0-4.1,2.95-6.62,5.98-6.62,3.67,0,5.45,2.65,5.45,6.08,0,.71-.08,1.37-.15,1.73h-7.46c.36,1.71,1.55,2.44,3.16,2.44.92,0,1.83-.28,2.72-.79l1.27,2.37c-1.32.94-3.06,1.42-4.56,1.42-3.62,0-6.42-2.42-6.42-6.64ZM331.05,624.04c0-1.25-.56-2.19-1.99-2.19-1.12,0-2.06.71-2.32,2.19h4.3Z"/>
      </g>
      <g>
        <path class="cls-2" d="M225.39,642.91h10.49v3.31h-6.52v3.11h5.58v3.31h-5.58v3.54h6.77v3.31h-10.74v-16.57Z"/>
        <path class="cls-2" d="M239.1,646.83h3.21l.28,1.58h.1c1.04-1.02,2.32-1.88,4.05-1.88,2.75,0,3.92,1.96,3.92,5.12v7.84h-3.95v-7.33c0-1.76-.46-2.29-1.48-2.29-.89,0-1.42.43-2.21,1.14v8.48h-3.92v-12.65Z"/>
        <path class="cls-2" d="M252.98,661.62c0-1.04.61-1.88,1.78-2.5v-.1c-.66-.46-1.15-1.12-1.15-2.16,0-.89.59-1.81,1.4-2.39v-.1c-.89-.61-1.71-1.78-1.71-3.26,0-3.08,2.55-4.58,5.29-4.58.71,0,1.4.1,1.99.3h4.66v2.85h-1.99c.2.36.38.94.38,1.55,0,2.95-2.24,4.25-5.04,4.25-.43,0-.94-.08-1.5-.23-.28.25-.41.46-.41.87,0,.61.51.89,1.86.89h2.01c3.13,0,4.89.94,4.89,3.23,0,2.67-2.78,4.56-7.18,4.56-2.93,0-5.3-.92-5.3-3.18ZM261.69,660.93c0-.76-.66-.92-1.86-.92h-1.22c-.92,0-1.4-.05-1.78-.15-.41.36-.61.71-.61,1.12,0,.92,1.07,1.37,2.7,1.37s2.77-.61,2.77-1.43ZM260.21,651.1c0-1.3-.66-1.96-1.6-1.96s-1.6.66-1.6,1.96.69,2.01,1.6,2.01,1.6-.69,1.6-2.01Z"/>
        <path class="cls-2" d="M267.2,643.01c0-1.22.92-2.01,2.21-2.01s2.22.79,2.22,2.01-.92,2.04-2.22,2.04-2.21-.79-2.21-2.04ZM267.45,646.83h3.92v12.65h-3.92v-12.65Z"/>
        <path class="cls-2" d="M274.59,646.83h3.21l.28,1.58h.1c1.04-1.02,2.32-1.88,4.05-1.88,2.75,0,3.92,1.96,3.92,5.12v7.84h-3.95v-7.33c0-1.76-.46-2.29-1.48-2.29-.89,0-1.42.43-2.21,1.14v8.48h-3.92v-12.65Z"/>
        <path class="cls-2" d="M288.52,653.14c0-4.1,2.95-6.62,5.98-6.62,3.67,0,5.45,2.65,5.45,6.08,0,.71-.08,1.37-.15,1.73h-7.46c.36,1.71,1.55,2.44,3.16,2.44.92,0,1.83-.28,2.72-.79l1.27,2.37c-1.32.94-3.06,1.42-4.56,1.42-3.62,0-6.42-2.42-6.42-6.64ZM296.59,651.69c0-1.25-.56-2.19-1.99-2.19-1.12,0-2.06.71-2.32,2.19h4.3Z"/>
        <path class="cls-2" d="M301.77,653.14c0-4.1,2.95-6.62,5.98-6.62,3.67,0,5.45,2.65,5.45,6.08,0,.71-.08,1.37-.15,1.73h-7.46c.36,1.71,1.55,2.44,3.16,2.44.92,0,1.83-.28,2.72-.79l1.27,2.37c-1.32.94-3.06,1.42-4.56,1.42-3.62,0-6.42-2.42-6.42-6.64ZM309.84,651.69c0-1.25-.56-2.19-1.99-2.19-1.12,0-2.06.71-2.32,2.19h4.3Z"/>
        <path class="cls-2" d="M315.73,646.83h3.21l.28,2.19h.1c.92-1.7,2.32-2.49,3.59-2.49.74,0,1.17.08,1.53.25l-.74,3.34c-.46-.1-.74-.15-1.3-.15-.94,0-2.09.61-2.75,2.29v7.23h-3.92v-12.65Z"/>
        <path class="cls-2" d="M325.79,643.01c0-1.22.92-2.01,2.21-2.01s2.22.79,2.22,2.01-.92,2.04-2.22,2.04-2.21-.79-2.21-2.04ZM326.05,646.83h3.92v12.65h-3.92v-12.65Z"/>
        <path class="cls-2" d="M333.18,646.83h3.21l.28,1.58h.1c1.04-1.02,2.32-1.88,4.05-1.88,2.75,0,3.92,1.96,3.92,5.12v7.84h-3.95v-7.33c0-1.76-.46-2.29-1.48-2.29-.89,0-1.42.43-2.21,1.14v8.48h-3.92v-12.65Z"/>
        <path class="cls-2" d="M347.06,661.62c0-1.04.61-1.88,1.78-2.5v-.1c-.66-.46-1.15-1.12-1.15-2.16,0-.89.59-1.81,1.4-2.39v-.1c-.89-.61-1.71-1.78-1.71-3.26,0-3.08,2.55-4.58,5.29-4.58.71,0,1.4.1,1.99.3h4.66v2.85h-1.99c.2.36.38.94.38,1.55,0,2.95-2.24,4.25-5.04,4.25-.43,0-.94-.08-1.5-.23-.28.25-.41.46-.41.87,0,.61.51.89,1.86.89h2.01c3.13,0,4.89.94,4.89,3.23,0,2.67-2.78,4.56-7.18,4.56-2.93,0-5.3-.92-5.3-3.18ZM355.77,660.93c0-.76-.66-.92-1.86-.92h-1.22c-.92,0-1.4-.05-1.78-.15-.41.36-.61.71-.61,1.12,0,.92,1.07,1.37,2.7,1.37s2.77-.61,2.77-1.43ZM354.29,651.1c0-1.3-.66-1.96-1.6-1.96s-1.6.66-1.6,1.96.69,2.01,1.6,2.01,1.6-.69,1.6-2.01Z"/>
      </g>
    </g>
  </g>
  <g>
    <path class="cls-2" d="M508.05,451.27h4.73l5.17,16.57h-4.18l-.97-3.82h-4.91l-.97,3.82h-4.05l5.17-16.57ZM508.66,460.97h3.39l-.36-1.43c-.43-1.63-.86-3.59-1.3-5.32h-.1c-.41,1.73-.84,3.69-1.27,5.32l-.36,1.43Z"/>
    <path class="cls-2" d="M519.36,463.75v-13.7h3.92v13.85c0,.81.41,1.07.71,1.07.15,0,.25,0,.46-.05l.46,2.9c-.43.18-1.09.33-1.96.33-2.7,0-3.59-1.76-3.59-4.4Z"/>
    <path class="cls-2" d="M525.98,469.99c0-1.04.61-1.88,1.78-2.5v-.1c-.66-.46-1.15-1.12-1.15-2.16,0-.89.59-1.81,1.4-2.39v-.1c-.89-.61-1.71-1.78-1.71-3.26,0-3.08,2.55-4.58,5.29-4.58.71,0,1.4.1,1.99.3h4.66v2.85h-1.99c.2.36.38.94.38,1.55,0,2.95-2.24,4.25-5.04,4.25-.43,0-.94-.08-1.5-.23-.28.25-.41.46-.41.87,0,.61.51.89,1.86.89h2.01c3.13,0,4.89.94,4.89,3.23,0,2.67-2.78,4.56-7.18,4.56-2.93,0-5.3-.92-5.3-3.18ZM534.69,469.3c0-.76-.66-.92-1.86-.92h-1.22c-.92,0-1.4-.05-1.78-.15-.41.36-.61.71-.61,1.12,0,.92,1.07,1.37,2.7,1.37s2.77-.61,2.77-1.43ZM533.22,459.47c0-1.3-.66-1.96-1.6-1.96s-1.6.66-1.6,1.96.69,2.01,1.6,2.01,1.6-.69,1.6-2.01Z"/>
    <path class="cls-2" d="M539.26,461.51c0-4.2,2.98-6.62,6.19-6.62s6.21,2.42,6.21,6.62-2.98,6.64-6.21,6.64-6.19-2.44-6.19-6.64ZM547.61,461.51c0-2.09-.69-3.46-2.16-3.46s-2.16,1.37-2.16,3.46.69,3.46,2.16,3.46,2.16-1.35,2.16-3.46Z"/>
    <path class="cls-2" d="M554.16,455.19h3.21l.28,2.19h.1c.92-1.7,2.32-2.49,3.59-2.49.74,0,1.17.08,1.53.25l-.74,3.34c-.46-.1-.74-.15-1.3-.15-.94,0-2.09.61-2.75,2.29v7.23h-3.92v-12.65Z"/>
    <path class="cls-2" d="M564.22,451.37c0-1.22.92-2.01,2.21-2.01s2.22.79,2.22,2.01-.92,2.04-2.22,2.04-2.21-.79-2.21-2.04ZM564.48,455.19h3.92v12.65h-3.92v-12.65Z"/>
    <path class="cls-2" d="M572.12,463.16v-4.89h-1.7v-2.95l1.93-.13.46-3.87h3.26v3.87h2.98v3.08h-2.98v4.84c0,1.42.66,1.96,1.6,1.96.41,0,.84-.05,1.17-.18l.61,2.75c-.66.25-1.63.51-2.88.51-3.16,0-4.46-2.01-4.46-4.99Z"/>
    <path class="cls-2" d="M581.5,450.05h3.92v4.28l-.18,2.27c.94-.84,2.16-1.71,3.9-1.71,2.75,0,3.92,1.96,3.92,5.12v7.84h-3.95v-7.33c0-1.76-.46-2.29-1.48-2.29-.89,0-1.42.43-2.21,1.14v8.48h-3.92v-17.8Z"/>
    <path class="cls-2" d="M596.14,455.19h3.21l.28,1.58h.1c1.02-1.02,2.14-1.88,3.82-1.88s2.85.74,3.49,2.09c1.09-1.12,2.27-2.09,3.95-2.09,2.75,0,3.97,1.96,3.97,5.12v7.84h-3.92v-7.33c0-1.76-.48-2.29-1.48-2.29-.61,0-1.27.38-2.04,1.14v8.48h-3.95v-7.33c0-1.76-.46-2.29-1.48-2.29-.59,0-1.27.38-2.04,1.14v8.48h-3.92v-12.65Z"/>
    <path class="cls-2" d="M622.43,465.73l2.09-2.57c1.17,1.02,2.77,1.58,4.18,1.58,1.5,0,2.19-.56,2.19-1.45,0-.97-.89-1.27-2.34-1.86l-2.11-.92c-1.76-.69-3.36-2.14-3.36-4.53,0-2.78,2.49-5.01,6.01-5.01,1.99,0,3.95.74,5.37,2.06l-2.06,2.57c-1.12-.79-2.27-1.22-3.31-1.22-1.22,0-2.01.49-2.01,1.35,0,.97,1.04,1.3,2.52,1.88l2.06.84c2.06.81,3.29,2.19,3.29,4.51,0,2.78-2.32,5.19-6.31,5.19-2.24,0-4.46-.76-6.19-2.42Z"/>
    <path class="cls-2" d="M636.67,461.51c0-4.1,2.95-6.62,5.98-6.62,3.67,0,5.45,2.65,5.45,6.08,0,.71-.08,1.37-.15,1.73h-7.46c.36,1.71,1.55,2.44,3.16,2.44.92,0,1.83-.28,2.72-.79l1.27,2.37c-1.32.94-3.06,1.42-4.56,1.42-3.62,0-6.42-2.42-6.42-6.64ZM644.74,460.06c0-1.25-.56-2.19-1.99-2.19-1.12,0-2.06.71-2.32,2.19h4.3Z"/>
    <path class="cls-2" d="M650.63,463.75v-13.7h3.92v13.85c0,.81.41,1.07.71,1.07.15,0,.25,0,.46-.05l.46,2.9c-.43.18-1.09.33-1.96.33-2.7,0-3.59-1.76-3.59-4.4Z"/>
    <path class="cls-2" d="M657.31,461.51c0-4.1,2.95-6.62,5.98-6.62,3.67,0,5.45,2.65,5.45,6.08,0,.71-.08,1.37-.15,1.73h-7.46c.36,1.71,1.55,2.44,3.16,2.44.92,0,1.83-.28,2.72-.79l1.27,2.37c-1.32.94-3.06,1.42-4.56,1.42-3.62,0-6.42-2.42-6.42-6.64ZM665.38,460.06c0-1.25-.56-2.19-1.99-2.19-1.12,0-2.06.71-2.32,2.19h4.3Z"/>
    <path class="cls-2" d="M670.55,461.51c0-4.2,3.13-6.62,6.64-6.62,1.55,0,2.75.53,3.69,1.35l-1.83,2.42c-.59-.43-1.07-.61-1.63-.61-1.76,0-2.85,1.37-2.85,3.46s1.17,3.46,2.72,3.46c.84,0,1.55-.3,2.19-.79l1.53,2.47c-1.22,1.12-2.83,1.5-4.18,1.5-3.56,0-6.29-2.44-6.29-6.64Z"/>
    <path class="cls-2" d="M683.47,463.16v-4.89h-1.7v-2.95l1.93-.13.46-3.87h3.26v3.87h2.98v3.08h-2.98v4.84c0,1.42.66,1.96,1.6,1.96.41,0,.84-.05,1.17-.18l.61,2.75c-.66.25-1.63.51-2.88.51-3.16,0-4.46-2.01-4.46-4.99Z"/>
    <path class="cls-2" d="M692.59,451.37c0-1.22.92-2.01,2.21-2.01s2.22.79,2.22,2.01-.92,2.04-2.22,2.04-2.21-.79-2.21-2.04ZM692.84,455.19h3.92v12.65h-3.92v-12.65Z"/>
    <path class="cls-2" d="M699.26,461.51c0-4.2,2.98-6.62,6.19-6.62s6.21,2.42,6.21,6.62-2.98,6.64-6.21,6.64-6.19-2.44-6.19-6.64ZM707.62,461.51c0-2.09-.69-3.46-2.16-3.46s-2.16,1.37-2.16,3.46.69,3.46,2.16,3.46,2.16-1.35,2.16-3.46Z"/>
    <path class="cls-2" d="M714.17,455.19h3.21l.28,1.58h.1c1.04-1.02,2.32-1.88,4.05-1.88,2.75,0,3.92,1.96,3.92,5.12v7.84h-3.95v-7.33c0-1.76-.46-2.29-1.48-2.29-.89,0-1.43.43-2.22,1.14v8.48h-3.92v-12.65Z"/>
    <path class="cls-2" d="M576.65,491.39h-4.46v-2.75h4.46v-4.66h2.88v4.66h4.48v2.75h-4.48v4.66h-2.88v-4.66Z"/>
    <path class="cls-2" d="M591.89,481.84h4.33l2.62,7.21c.3.97.58,1.96.89,3h.1c.3-1.04.56-2.04.89-3l2.52-7.21h4.33v16.57h-3.59v-5.75c0-1.63.33-4.46.53-6.08h-.1l-1.37,4.33-2.24,6.11h-2.24l-2.22-6.11-1.32-4.33h-.1c.2,1.63.53,4.46.53,6.08v5.75h-3.56v-16.57Z"/>
    <path class="cls-2" d="M610.38,492.08c0-4.2,2.98-6.62,6.19-6.62s6.21,2.42,6.21,6.62-2.98,6.64-6.21,6.64-6.19-2.44-6.19-6.64ZM618.73,492.08c0-2.09-.69-3.46-2.16-3.46s-2.16,1.37-2.16,3.46.69,3.46,2.16,3.46,2.16-1.35,2.16-3.46Z"/>
    <path class="cls-2" d="M624.64,492.08c0-4.13,2.6-6.62,5.22-6.62,1.4,0,2.24.51,3.06,1.3l-.13-1.88v-4.25h3.95v17.8h-3.23l-.28-1.22h-.07c-.89.89-2.14,1.53-3.34,1.53-3.13,0-5.17-2.52-5.17-6.64ZM632.79,494.44v-5.04c-.61-.53-1.35-.74-1.99-.74-1.12,0-2.11,1.02-2.11,3.39s.81,3.44,2.16,3.44c.76,0,1.35-.25,1.94-1.04Z"/>
    <path class="cls-2" d="M639.22,492.08c0-4.1,2.95-6.62,5.98-6.62,3.67,0,5.45,2.65,5.45,6.08,0,.71-.08,1.37-.15,1.73h-7.46c.36,1.71,1.55,2.44,3.16,2.44.92,0,1.83-.28,2.72-.79l1.27,2.37c-1.32.94-3.06,1.42-4.56,1.42-3.62,0-6.42-2.42-6.42-6.64ZM647.29,490.63c0-1.25-.56-2.19-1.99-2.19-1.12,0-2.06.71-2.32,2.19h4.3Z"/>
    <path class="cls-2" d="M653.18,494.32v-13.7h3.92v13.85c0,.81.41,1.07.71,1.07.15,0,.25,0,.46-.05l.46,2.9c-.43.18-1.09.33-1.96.33-2.7,0-3.59-1.76-3.59-4.4Z"/>
  </g>
  <g>
    <path class="cls-2" d="M85.06,448.76h4.33l2.62,7.2c.3.97.58,1.96.89,3.01h.1c.3-1.04.56-2.04.89-3.01l2.52-7.2h4.33v16.57h-3.59v-5.75c0-1.63.33-4.46.53-6.08h-.1l-1.37,4.33-2.24,6.11h-2.24l-2.22-6.11-1.32-4.33h-.1c.2,1.63.53,4.46.53,6.08v5.75h-3.56v-16.57Z"/>
    <path class="cls-2" d="M103.56,459c0-4.2,2.98-6.62,6.19-6.62s6.21,2.42,6.21,6.62-2.98,6.64-6.21,6.64-6.19-2.44-6.19-6.64ZM111.91,459c0-2.09-.69-3.46-2.16-3.46s-2.16,1.37-2.16,3.46.69,3.46,2.16,3.46,2.16-1.35,2.16-3.46Z"/>
    <path class="cls-2" d="M117.82,459c0-4.13,2.6-6.62,5.22-6.62,1.4,0,2.24.51,3.06,1.3l-.13-1.88v-4.25h3.95v17.8h-3.23l-.28-1.22h-.07c-.89.89-2.14,1.53-3.34,1.53-3.13,0-5.17-2.52-5.17-6.64ZM125.97,461.37v-5.04c-.61-.53-1.35-.74-1.99-.74-1.12,0-2.11,1.02-2.11,3.39s.81,3.44,2.16,3.44c.76,0,1.35-.25,1.94-1.04Z"/>
    <path class="cls-2" d="M132.39,459c0-4.1,2.95-6.62,5.98-6.62,3.67,0,5.45,2.65,5.45,6.08,0,.71-.08,1.37-.15,1.73h-7.46c.36,1.71,1.55,2.44,3.16,2.44.92,0,1.83-.28,2.72-.79l1.27,2.37c-1.32.94-3.06,1.42-4.56,1.42-3.62,0-6.42-2.42-6.42-6.64ZM140.46,457.55c0-1.25-.56-2.19-1.99-2.19-1.12,0-2.06.71-2.32,2.19h4.3Z"/>
    <path class="cls-2" d="M146.35,461.24v-13.7h3.92v13.85c0,.81.41,1.07.71,1.07.15,0,.25,0,.46-.05l.46,2.9c-.43.18-1.09.33-1.96.33-2.7,0-3.59-1.76-3.59-4.4Z"/>
    <path class="cls-2" d="M159.14,448.76h10.49v3.31h-6.52v3.11h5.58v3.31h-5.58v3.54h6.77v3.31h-10.74v-16.57Z"/>
    <path class="cls-2" d="M171.29,452.68h3.95l1.58,5.83c.31,1.25.64,2.57.94,3.9h.1c.33-1.32.66-2.65.97-3.9l1.55-5.83h3.77l-4.07,12.65h-4.56l-4.23-12.65Z"/>
    <path class="cls-2" d="M185,461.8c0-2.67,2.06-4.13,7.05-4.63-.1-1.04-.64-1.66-1.93-1.66-1.02,0-2.04.36-3.31,1.07l-1.37-2.55c1.66-1.02,3.46-1.65,5.45-1.65,3.26,0,5.09,1.81,5.09,5.78v7.18h-3.21l-.28-1.27h-.1c-1.04.94-2.19,1.58-3.62,1.58-2.32,0-3.77-1.73-3.77-3.84ZM192.05,461.6v-2.01c-2.52.33-3.28,1.02-3.28,1.91,0,.74.49,1.09,1.35,1.09.79,0,1.32-.38,1.93-.99Z"/>
    <path class="cls-2" d="M199.06,461.24v-13.7h3.92v13.85c0,.81.41,1.07.71,1.07.15,0,.25,0,.46-.05l.46,2.9c-.43.18-1.09.33-1.96.33-2.7,0-3.59-1.76-3.59-4.4Z"/>
    <path class="cls-2" d="M206.32,460.53v-7.84h3.95v7.33c0,1.76.46,2.27,1.48,2.27.89,0,1.43-.36,2.11-1.3v-8.3h3.95v12.65h-3.21l-.28-1.73h-.1c-1.04,1.25-2.24,2.04-3.95,2.04-2.78,0-3.95-1.96-3.95-5.12Z"/>
    <path class="cls-2" d="M220.46,461.8c0-2.67,2.06-4.13,7.05-4.63-.1-1.04-.64-1.66-1.93-1.66-1.02,0-2.04.36-3.31,1.07l-1.38-2.55c1.66-1.02,3.46-1.65,5.45-1.65,3.26,0,5.09,1.81,5.09,5.78v7.18h-3.21l-.28-1.27h-.1c-1.04.94-2.19,1.58-3.62,1.58-2.32,0-3.77-1.73-3.77-3.84ZM227.51,461.6v-2.01c-2.52.33-3.28,1.02-3.28,1.91,0,.74.48,1.09,1.35,1.09.79,0,1.32-.38,1.93-.99Z"/>
    <path class="cls-2" d="M234.54,460.65v-4.89h-1.7v-2.95l1.93-.13.46-3.87h3.26v3.87h2.98v3.08h-2.98v4.84c0,1.42.66,1.96,1.6,1.96.41,0,.84-.05,1.17-.18l.61,2.75c-.66.25-1.63.51-2.88.51-3.16,0-4.46-2.01-4.46-4.99Z"/>
    <path class="cls-2" d="M243.66,448.87c0-1.22.92-2.01,2.21-2.01s2.22.79,2.22,2.01-.92,2.04-2.22,2.04-2.21-.79-2.21-2.04ZM243.92,452.68h3.92v12.65h-3.92v-12.65Z"/>
    <path class="cls-2" d="M250.34,459c0-4.2,2.98-6.62,6.19-6.62s6.21,2.42,6.21,6.62-2.98,6.64-6.21,6.64-6.19-2.44-6.19-6.64ZM258.69,459c0-2.09-.69-3.46-2.16-3.46s-2.16,1.37-2.16,3.46.69,3.46,2.16,3.46,2.16-1.35,2.16-3.46Z"/>
    <path class="cls-2" d="M265.24,452.68h3.21l.28,1.58h.1c1.04-1.02,2.32-1.88,4.05-1.88,2.75,0,3.92,1.96,3.92,5.12v7.84h-3.95v-7.33c0-1.76-.46-2.29-1.48-2.29-.89,0-1.43.43-2.22,1.14v8.48h-3.92v-12.65Z"/>
    <path class="cls-2" d="M288.7,458.31h-4.46v-2.75h4.46v-4.66h2.88v4.66h4.48v2.75h-4.48v4.66h-2.88v-4.66Z"/>
    <path class="cls-2" d="M148.41,482.64h-4.51v-3.31h12.96v3.31h-4.51v13.27h-3.95v-13.27Z"/>
    <path class="cls-2" d="M158.07,483.25h3.21l.28,2.19h.1c.92-1.7,2.32-2.49,3.59-2.49.74,0,1.17.08,1.53.25l-.74,3.33c-.46-.1-.74-.15-1.3-.15-.94,0-2.09.61-2.75,2.29v7.23h-3.92v-12.65Z"/>
    <path class="cls-2" d="M167.09,492.37c0-2.67,2.06-4.13,7.05-4.63-.1-1.04-.64-1.66-1.93-1.66-1.02,0-2.04.36-3.31,1.07l-1.37-2.55c1.66-1.02,3.46-1.65,5.45-1.65,3.26,0,5.09,1.81,5.09,5.78v7.18h-3.21l-.28-1.27h-.1c-1.04.94-2.19,1.58-3.62,1.58-2.32,0-3.77-1.73-3.77-3.84ZM174.14,492.17v-2.01c-2.52.33-3.28,1.02-3.28,1.91,0,.74.49,1.09,1.35,1.09.79,0,1.32-.38,1.93-.99Z"/>
    <path class="cls-2" d="M180.9,479.44c0-1.22.92-2.01,2.21-2.01s2.22.79,2.22,2.01-.92,2.04-2.22,2.04-2.21-.79-2.21-2.04ZM181.15,483.25h3.92v12.65h-3.92v-12.65Z"/>
    <path class="cls-2" d="M188.28,483.25h3.21l.28,1.58h.1c1.04-1.02,2.32-1.88,4.05-1.88,2.75,0,3.92,1.96,3.92,5.12v7.84h-3.95v-7.33c0-1.76-.46-2.29-1.48-2.29-.89,0-1.42.43-2.21,1.14v8.48h-3.92v-12.65Z"/>
    <path class="cls-2" d="M202.68,479.44c0-1.22.92-2.01,2.21-2.01s2.22.79,2.22,2.01-.92,2.04-2.22,2.04-2.21-.79-2.21-2.04ZM202.93,483.25h3.92v12.65h-3.92v-12.65Z"/>
    <path class="cls-2" d="M210.07,483.25h3.21l.28,1.58h.1c1.04-1.02,2.32-1.88,4.05-1.88,2.75,0,3.92,1.96,3.92,5.12v7.84h-3.95v-7.33c0-1.76-.46-2.29-1.48-2.29-.89,0-1.43.43-2.22,1.14v8.48h-3.92v-12.65Z"/>
    <path class="cls-2" d="M223.95,498.05c0-1.04.61-1.88,1.78-2.5v-.1c-.66-.46-1.15-1.12-1.15-2.16,0-.89.59-1.81,1.4-2.39v-.1c-.89-.61-1.71-1.78-1.71-3.26,0-3.08,2.55-4.58,5.29-4.58.71,0,1.4.1,1.99.3h4.66v2.85h-1.99c.2.36.38.94.38,1.55,0,2.95-2.24,4.25-5.04,4.25-.43,0-.94-.08-1.5-.23-.28.25-.41.46-.41.87,0,.61.51.89,1.86.89h2.01c3.13,0,4.89.94,4.89,3.23,0,2.67-2.78,4.56-7.18,4.56-2.93,0-5.3-.92-5.3-3.18ZM232.66,497.36c0-.76-.66-.92-1.86-.92h-1.22c-.92,0-1.4-.05-1.78-.15-.41.36-.61.71-.61,1.12,0,.92,1.07,1.37,2.7,1.37s2.77-.61,2.77-1.43ZM231.18,487.53c0-1.3-.66-1.96-1.6-1.96s-1.6.66-1.6,1.96.69,2.01,1.6,2.01,1.6-.69,1.6-2.01Z"/>
  </g>
  <g>
    <g>
      <path class="cls-2" d="M548.77,337.42h4.76c5.07,0,8.4,2.47,8.4,8.22s-3.33,8.35-8.17,8.35h-4.99v-16.57ZM553.3,350.81c2.67,0,4.58-1.25,4.58-5.17s-1.91-5.04-4.58-5.04h-.56v10.21h.56Z"/>
      <path class="cls-2" d="M564.13,350.45c0-2.67,2.06-4.13,7.05-4.63-.1-1.04-.64-1.66-1.93-1.66-1.02,0-2.04.36-3.31,1.07l-1.37-2.55c1.66-1.02,3.46-1.65,5.45-1.65,3.26,0,5.09,1.81,5.09,5.78v7.18h-3.21l-.28-1.27h-.1c-1.04.94-2.19,1.58-3.62,1.58-2.32,0-3.77-1.73-3.77-3.84ZM571.18,350.25v-2.01c-2.52.33-3.28,1.02-3.28,1.91,0,.74.49,1.09,1.35,1.09.79,0,1.32-.38,1.93-.99Z"/>
      <path class="cls-2" d="M578.22,349.31v-4.89h-1.7v-2.95l1.93-.13.46-3.87h3.26v3.87h2.98v3.08h-2.98v4.84c0,1.42.66,1.96,1.6,1.96.41,0,.84-.05,1.17-.18l.61,2.75c-.66.25-1.63.51-2.88.51-3.16,0-4.46-2.01-4.46-4.99Z"/>
      <path class="cls-2" d="M586.53,350.45c0-2.67,2.06-4.13,7.05-4.63-.1-1.04-.64-1.66-1.93-1.66-1.02,0-2.04.36-3.31,1.07l-1.37-2.55c1.66-1.02,3.46-1.65,5.45-1.65,3.26,0,5.09,1.81,5.09,5.78v7.18h-3.21l-.28-1.27h-.1c-1.04.94-2.19,1.58-3.62,1.58-2.32,0-3.77-1.73-3.77-3.84ZM593.58,350.25v-2.01c-2.52.33-3.28,1.02-3.28,1.91,0,.74.49,1.09,1.35,1.09.79,0,1.32-.38,1.93-.99Z"/>
      <path class="cls-2" d="M605.23,345.82c0-5.52,3.72-8.71,7.89-8.71,2.16,0,3.9.97,5.04,2.16l-2.09,2.39c-.81-.76-1.68-1.15-2.85-1.15-2.19,0-3.95,1.94-3.95,5.14s1.55,5.22,3.87,5.22c1.35,0,2.39-.53,3.18-1.37l2.06,2.34c-1.45,1.66-3.28,2.44-5.37,2.44-4.23,0-7.79-2.88-7.79-8.48Z"/>
      <path class="cls-2" d="M619.82,347.65c0-4.2,2.98-6.62,6.19-6.62s6.21,2.42,6.21,6.62-2.98,6.64-6.21,6.64-6.19-2.44-6.19-6.64ZM628.17,347.65c0-2.09-.69-3.46-2.16-3.46s-2.16,1.37-2.16,3.46.69,3.46,2.16,3.46,2.16-1.35,2.16-3.46Z"/>
      <path class="cls-2" d="M634.72,349.89v-13.7h3.92v13.85c0,.81.41,1.07.71,1.07.15,0,.25,0,.46-.05l.46,2.9c-.43.18-1.09.33-1.96.33-2.7,0-3.59-1.76-3.59-4.4Z"/>
      <path class="cls-2" d="M642.11,349.89v-13.7h3.92v13.85c0,.81.41,1.07.71,1.07.15,0,.25,0,.46-.05l.46,2.9c-.43.18-1.09.33-1.96.33-2.7,0-3.59-1.76-3.59-4.4Z"/>
      <path class="cls-2" d="M648.78,347.65c0-4.1,2.95-6.62,5.98-6.62,3.67,0,5.45,2.65,5.45,6.08,0,.71-.08,1.37-.15,1.73h-7.46c.36,1.71,1.55,2.44,3.16,2.44.92,0,1.83-.28,2.72-.79l1.27,2.37c-1.32.94-3.06,1.42-4.56,1.42-3.62,0-6.42-2.42-6.42-6.64ZM656.85,346.2c0-1.25-.56-2.19-1.99-2.19-1.12,0-2.06.71-2.32,2.19h4.3Z"/>
      <path class="cls-2" d="M662.03,347.65c0-4.2,3.13-6.62,6.64-6.62,1.55,0,2.75.53,3.69,1.35l-1.83,2.42c-.59-.43-1.07-.61-1.63-.61-1.76,0-2.85,1.37-2.85,3.46s1.17,3.46,2.72,3.46c.84,0,1.55-.3,2.19-.79l1.53,2.47c-1.22,1.12-2.83,1.5-4.18,1.5-3.56,0-6.29-2.44-6.29-6.64Z"/>
      <path class="cls-2" d="M674.94,349.31v-4.89h-1.71v-2.95l1.94-.13.46-3.87h3.26v3.87h2.98v3.08h-2.98v4.84c0,1.42.66,1.96,1.6,1.96.41,0,.84-.05,1.17-.18l.61,2.75c-.66.25-1.63.51-2.88.51-3.16,0-4.46-2.01-4.46-4.99Z"/>
      <path class="cls-2" d="M684.07,337.52c0-1.22.92-2.01,2.21-2.01s2.22.79,2.22,2.01-.92,2.04-2.22,2.04-2.21-.79-2.21-2.04ZM684.32,341.34h3.92v12.65h-3.92v-12.65Z"/>
      <path class="cls-2" d="M690.74,347.65c0-4.2,2.98-6.62,6.19-6.62s6.21,2.42,6.21,6.62-2.98,6.64-6.21,6.64-6.19-2.44-6.19-6.64ZM699.09,347.65c0-2.09-.69-3.46-2.16-3.46s-2.16,1.37-2.16,3.46.69,3.46,2.16,3.46,2.16-1.35,2.16-3.46Z"/>
      <path class="cls-2" d="M705.64,341.34h3.21l.28,1.58h.1c1.04-1.02,2.32-1.88,4.05-1.88,2.75,0,3.92,1.96,3.92,5.12v7.84h-3.95v-7.33c0-1.76-.46-2.29-1.48-2.29-.89,0-1.42.43-2.21,1.14v8.48h-3.92v-12.65Z"/>
    </g>
    <g>
      <path class="cls-2" d="M81.59,334.78h4.33l2.62,7.21c.3.97.58,1.96.89,3h.1c.3-1.04.56-2.04.89-3l2.52-7.21h4.33v16.57h-3.59v-5.75c0-1.63.33-4.46.53-6.08h-.1l-1.37,4.33-2.24,6.11h-2.24l-2.22-6.11-1.32-4.33h-.1c.2,1.63.53,4.46.53,6.08v5.75h-3.56v-16.57Z"/>
      <path class="cls-2" d="M100.08,345.02c0-4.2,2.98-6.62,6.19-6.62s6.21,2.42,6.21,6.62-2.98,6.64-6.21,6.64-6.19-2.44-6.19-6.64ZM108.43,345.02c0-2.09-.69-3.46-2.16-3.46s-2.16,1.37-2.16,3.46.69,3.46,2.16,3.46,2.16-1.35,2.16-3.46Z"/>
      <path class="cls-2" d="M114.35,345.02c0-4.13,2.6-6.62,5.22-6.62,1.4,0,2.24.51,3.06,1.3l-.13-1.88v-4.25h3.95v17.8h-3.23l-.28-1.22h-.07c-.89.89-2.14,1.53-3.34,1.53-3.13,0-5.17-2.52-5.17-6.64ZM122.49,347.38v-5.04c-.61-.53-1.35-.74-1.99-.74-1.12,0-2.11,1.02-2.11,3.39s.81,3.44,2.16,3.44c.76,0,1.35-.25,1.94-1.04Z"/>
      <path class="cls-2" d="M128.92,345.02c0-4.1,2.95-6.62,5.98-6.62,3.67,0,5.45,2.65,5.45,6.08,0,.71-.08,1.37-.15,1.73h-7.46c.36,1.71,1.55,2.44,3.16,2.44.92,0,1.83-.28,2.72-.79l1.27,2.37c-1.32.94-3.06,1.42-4.56,1.42-3.62,0-6.42-2.42-6.42-6.64ZM136.99,343.57c0-1.25-.56-2.19-1.99-2.19-1.12,0-2.06.71-2.32,2.19h4.3Z"/>
      <path class="cls-2" d="M142.88,347.26v-13.7h3.92v13.85c0,.81.41,1.07.71,1.07.15,0,.25,0,.46-.05l.46,2.9c-.43.18-1.09.33-1.96.33-2.7,0-3.59-1.76-3.59-4.4Z"/>
      <path class="cls-2" d="M155.66,334.78h4.76c5.07,0,8.4,2.47,8.4,8.22s-3.34,8.35-8.17,8.35h-4.99v-16.57ZM160.2,348.17c2.67,0,4.58-1.25,4.58-5.17s-1.91-5.04-4.58-5.04h-.56v10.21h.56Z"/>
      <path class="cls-2" d="M170.87,345.02c0-4.1,2.95-6.62,5.98-6.62,3.67,0,5.45,2.65,5.45,6.08,0,.71-.08,1.37-.15,1.73h-7.46c.36,1.71,1.55,2.44,3.16,2.44.92,0,1.83-.28,2.72-.79l1.27,2.37c-1.32.94-3.06,1.42-4.56,1.42-3.62,0-6.42-2.42-6.42-6.64ZM178.94,343.57c0-1.25-.56-2.19-1.99-2.19-1.12,0-2.06.71-2.32,2.19h4.3Z"/>
      <path class="cls-2" d="M184.83,338.7h3.21l.28,1.22h.1c.97-.89,2.24-1.53,3.54-1.53,3.06,0,4.94,2.52,4.94,6.42,0,4.35-2.57,6.85-5.29,6.85-1.1,0-2.09-.46-2.98-1.3l.13,1.96v3.67h-3.92v-17.29ZM192.85,344.86c0-2.21-.66-3.26-2.06-3.26-.74,0-1.35.33-2.04,1.07v5.01c.64.56,1.3.74,1.91.74,1.22,0,2.19-.99,2.19-3.57Z"/>
      <path class="cls-2" d="M199.48,347.26v-13.7h3.92v13.85c0,.81.41,1.07.71,1.07.15,0,.25,0,.46-.05l.46,2.9c-.43.18-1.09.33-1.96.33-2.7,0-3.59-1.76-3.59-4.4Z"/>
      <path class="cls-2" d="M206.15,345.02c0-4.2,2.98-6.62,6.19-6.62s6.21,2.42,6.21,6.62-2.98,6.64-6.21,6.64-6.19-2.44-6.19-6.64ZM214.5,345.02c0-2.09-.69-3.46-2.16-3.46s-2.16,1.37-2.16,3.46.69,3.46,2.16,3.46,2.16-1.35,2.16-3.46Z"/>
      <path class="cls-2" d="M220.55,355.94l.69-2.9c.41.1.59.13.84.13,1.22,0,1.83-.64,2.14-1.55l.18-.61-4.86-12.3h3.95l1.73,5.24c.36,1.17.64,2.34.97,3.59h.1c.28-1.2.53-2.39.86-3.59l1.45-5.24h3.77l-4.35,12.68c-1.25,3.26-2.6,4.86-5.63,4.86-.81,0-1.32-.1-1.83-.3Z"/>
      <path class="cls-2" d="M234.28,338.7h3.21l.28,1.58h.1c1.02-1.02,2.14-1.88,3.82-1.88s2.85.74,3.49,2.09c1.09-1.12,2.27-2.09,3.95-2.09,2.75,0,3.97,1.96,3.97,5.12v7.84h-3.92v-7.33c0-1.76-.48-2.29-1.48-2.29-.61,0-1.27.38-2.04,1.14v8.48h-3.95v-7.33c0-1.76-.46-2.29-1.48-2.29-.59,0-1.27.38-2.04,1.14v8.48h-3.92v-12.65Z"/>
      <path class="cls-2" d="M255.5,345.02c0-4.1,2.95-6.62,5.98-6.62,3.67,0,5.45,2.65,5.45,6.08,0,.71-.08,1.37-.15,1.73h-7.46c.36,1.71,1.55,2.44,3.16,2.44.92,0,1.83-.28,2.72-.79l1.27,2.37c-1.32.94-3.06,1.42-4.56,1.42-3.62,0-6.42-2.42-6.42-6.64ZM263.57,343.57c0-1.25-.56-2.19-1.99-2.19-1.12,0-2.06.71-2.32,2.19h4.3Z"/>
      <path class="cls-2" d="M269.46,338.7h3.21l.28,1.58h.1c1.04-1.02,2.32-1.88,4.05-1.88,2.75,0,3.92,1.96,3.92,5.12v7.84h-3.95v-7.33c0-1.76-.46-2.29-1.48-2.29-.89,0-1.42.43-2.21,1.14v8.48h-3.92v-12.65Z"/>
      <path class="cls-2" d="M284.61,346.67v-4.89h-1.7v-2.95l1.93-.13.46-3.87h3.26v3.87h2.98v3.08h-2.98v4.84c0,1.42.66,1.96,1.6,1.96.41,0,.84-.05,1.17-.18l.61,2.75c-.66.25-1.63.51-2.88.51-3.16,0-4.46-2.01-4.46-4.99Z"/>
    </g>
  </g>
  <g>
    <path class="cls-2" d="M422.06,157.3h4.76c5.07,0,8.4,2.47,8.4,8.22s-3.33,8.35-8.17,8.35h-4.99v-16.57ZM426.59,170.69c2.67,0,4.58-1.25,4.58-5.17s-1.91-5.04-4.58-5.04h-.56v10.21h.56Z"/>
    <path class="cls-2" d="M437.27,167.54c0-4.1,2.95-6.62,5.98-6.62,3.67,0,5.45,2.65,5.45,6.08,0,.71-.08,1.37-.15,1.73h-7.46c.36,1.71,1.55,2.44,3.16,2.44.92,0,1.83-.28,2.72-.79l1.27,2.37c-1.32.94-3.06,1.42-4.56,1.42-3.62,0-6.42-2.42-6.42-6.64ZM445.34,166.08c0-1.25-.56-2.19-1.99-2.19-1.12,0-2.06.71-2.32,2.19h4.3Z"/>
    <path class="cls-2" d="M451.76,164.3h-1.68v-2.95l1.68-.1v-.53c0-2.67,1.25-4.94,4.79-4.94,1.09,0,2.01.23,2.57.46l-.74,2.8c-.43-.13-.84-.18-1.27-.18-.86,0-1.4.48-1.4,1.73v.64h2.24v3.08h-2.24v9.57h-3.95v-9.57Z"/>
    <path class="cls-2" d="M459.69,157.4c0-1.22.92-2.01,2.21-2.01s2.22.79,2.22,2.01-.92,2.04-2.22,2.04-2.21-.79-2.21-2.04ZM459.94,161.22h3.92v12.65h-3.92v-12.65Z"/>
    <path class="cls-2" d="M467.08,161.22h3.21l.28,1.58h.1c1.04-1.02,2.32-1.88,4.05-1.88,2.75,0,3.92,1.96,3.92,5.12v7.84h-3.95v-7.33c0-1.76-.46-2.29-1.48-2.29-.89,0-1.42.43-2.21,1.14v8.48h-3.92v-12.65Z"/>
    <path class="cls-2" d="M481.01,167.54c0-4.1,2.95-6.62,5.98-6.62,3.67,0,5.45,2.65,5.45,6.08,0,.71-.08,1.37-.15,1.73h-7.46c.36,1.71,1.55,2.44,3.16,2.44.92,0,1.83-.28,2.72-.79l1.27,2.37c-1.32.94-3.06,1.42-4.56,1.42-3.62,0-6.42-2.42-6.42-6.64ZM489.08,166.08c0-1.25-.56-2.19-1.99-2.19-1.12,0-2.06.71-2.32,2.19h4.3Z"/>
    <path class="cls-2" d="M500.37,157.3h5.83c3.64,0,6.62,1.3,6.62,5.37s-3.03,5.7-6.52,5.7h-1.96v5.5h-3.97v-16.57ZM506.07,165.25c1.96,0,2.88-.92,2.88-2.57s-1.04-2.24-2.98-2.24h-1.63v4.81h1.73Z"/>
    <path class="cls-2" d="M515.35,161.22h3.21l.28,2.19h.1c.92-1.7,2.32-2.49,3.59-2.49.74,0,1.17.08,1.53.25l-.74,3.34c-.46-.1-.74-.15-1.3-.15-.94,0-2.09.61-2.75,2.29v7.23h-3.92v-12.65Z"/>
    <path class="cls-2" d="M524.7,167.54c0-4.2,2.98-6.62,6.19-6.62s6.21,2.42,6.21,6.62-2.98,6.64-6.21,6.64-6.19-2.44-6.19-6.64ZM533.05,167.54c0-2.09-.69-3.46-2.16-3.46s-2.16,1.37-2.16,3.46.69,3.46,2.16,3.46,2.16-1.35,2.16-3.46Z"/>
    <path class="cls-2" d="M543.09,172.53h-.1l-.3,1.35h-3.08v-17.8h3.92v4.28l-.08,1.91c.94-.84,2.09-1.35,3.26-1.35,3.06,0,4.97,2.52,4.97,6.42,0,4.35-2.57,6.85-5.29,6.85-1.15,0-2.29-.56-3.29-1.65ZM547.62,167.38c0-2.21-.66-3.26-2.06-3.26-.74,0-1.35.33-2.04,1.07v5.01c.64.56,1.3.74,1.91.74,1.22,0,2.19-.99,2.19-3.57Z"/>
    <path class="cls-2" d="M554.25,169.78v-13.7h3.92v13.85c0,.81.41,1.07.71,1.07.15,0,.25,0,.46-.05l.46,2.9c-.43.18-1.09.33-1.96.33-2.7,0-3.59-1.76-3.59-4.4Z"/>
    <path class="cls-2" d="M560.92,167.54c0-4.1,2.95-6.62,5.98-6.62,3.67,0,5.45,2.65,5.45,6.08,0,.71-.08,1.37-.15,1.73h-7.46c.36,1.71,1.55,2.44,3.16,2.44.92,0,1.83-.28,2.72-.79l1.27,2.37c-1.32.94-3.06,1.42-4.56,1.42-3.62,0-6.42-2.42-6.42-6.64ZM568.99,166.08c0-1.25-.56-2.19-1.99-2.19-1.12,0-2.06.71-2.32,2.19h4.3Z"/>
    <path class="cls-2" d="M574.88,161.22h3.21l.28,1.58h.1c1.02-1.02,2.14-1.88,3.82-1.88s2.85.74,3.49,2.09c1.09-1.12,2.27-2.09,3.95-2.09,2.75,0,3.97,1.96,3.97,5.12v7.84h-3.92v-7.33c0-1.76-.48-2.29-1.48-2.29-.61,0-1.27.38-2.04,1.14v8.48h-3.95v-7.33c0-1.76-.46-2.29-1.48-2.29-.59,0-1.27.38-2.04,1.14v8.48h-3.92v-12.65Z"/>
  </g>
  <g>
    <path class="cls-2" d="M189.3,154.79h4.33l2.62,7.21c.3.97.58,1.96.89,3h.1c.3-1.04.56-2.04.89-3l2.52-7.21h4.33v16.57h-3.59v-5.75c0-1.63.33-4.46.53-6.08h-.1l-1.37,4.33-2.24,6.11h-2.24l-2.22-6.11-1.32-4.33h-.1c.2,1.63.53,4.46.53,6.08v5.75h-3.56v-16.57Z"/>
    <path class="cls-2" d="M207.79,165.03c0-4.2,2.98-6.62,6.19-6.62s6.21,2.42,6.21,6.62-2.98,6.64-6.21,6.64-6.19-2.44-6.19-6.64ZM216.14,165.03c0-2.09-.69-3.46-2.16-3.46s-2.16,1.37-2.16,3.46.69,3.46,2.16,3.46,2.16-1.35,2.16-3.46Z"/>
    <path class="cls-2" d="M222.06,165.03c0-4.13,2.6-6.62,5.22-6.62,1.4,0,2.24.51,3.06,1.3l-.13-1.88v-4.25h3.95v17.8h-3.23l-.28-1.22h-.07c-.89.89-2.14,1.53-3.34,1.53-3.13,0-5.17-2.52-5.17-6.64ZM230.21,167.4v-5.04c-.61-.53-1.35-.74-1.99-.74-1.12,0-2.11,1.02-2.11,3.39s.81,3.44,2.16,3.44c.76,0,1.35-.25,1.94-1.04Z"/>
    <path class="cls-2" d="M236.63,165.03c0-4.1,2.95-6.62,5.98-6.62,3.67,0,5.45,2.65,5.45,6.08,0,.71-.08,1.37-.15,1.73h-7.46c.36,1.71,1.55,2.44,3.16,2.44.92,0,1.83-.28,2.72-.79l1.27,2.37c-1.32.94-3.06,1.42-4.56,1.42-3.62,0-6.42-2.42-6.42-6.64ZM244.7,163.58c0-1.25-.56-2.19-1.99-2.19-1.12,0-2.06.71-2.32,2.19h4.3Z"/>
    <path class="cls-2" d="M250.59,167.27v-13.7h3.92v13.85c0,.81.41,1.07.71,1.07.15,0,.25,0,.46-.05l.46,2.9c-.43.18-1.09.33-1.96.33-2.7,0-3.59-1.76-3.59-4.4Z"/>
    <path class="cls-2" d="M263.38,154.79h4.33l2.62,7.21c.3.97.58,1.96.89,3h.1c.3-1.04.56-2.04.89-3l2.52-7.21h4.33v16.57h-3.59v-5.75c0-1.63.33-4.46.53-6.08h-.1l-1.37,4.33-2.24,6.11h-2.24l-2.22-6.11-1.32-4.33h-.1c.2,1.63.53,4.46.53,6.08v5.75h-3.56v-16.57Z"/>
    <path class="cls-2" d="M281.87,165.03c0-4.2,2.98-6.62,6.19-6.62s6.21,2.42,6.21,6.62-2.98,6.64-6.21,6.64-6.19-2.44-6.19-6.64ZM290.22,165.03c0-2.09-.69-3.46-2.16-3.46s-2.16,1.37-2.16,3.46.69,3.46,2.16,3.46,2.16-1.35,2.16-3.46Z"/>
    <path class="cls-2" d="M296.77,158.71h3.21l.28,1.58h.1c1.04-1.02,2.32-1.88,4.05-1.88,2.75,0,3.92,1.96,3.92,5.12v7.84h-3.95v-7.33c0-1.76-.46-2.29-1.48-2.29-.89,0-1.43.43-2.22,1.14v8.48h-3.92v-12.65Z"/>
    <path class="cls-2" d="M311.17,154.89c0-1.22.92-2.01,2.21-2.01s2.22.79,2.22,2.01-.92,2.04-2.22,2.04-2.21-.79-2.21-2.04ZM311.42,158.71h3.92v12.65h-3.92v-12.65Z"/>
    <path class="cls-2" d="M319.06,166.68v-4.89h-1.7v-2.95l1.93-.13.46-3.87h3.26v3.87h2.98v3.08h-2.98v4.84c0,1.42.66,1.96,1.6,1.96.41,0,.84-.05,1.17-.18l.61,2.75c-.66.25-1.63.51-2.88.51-3.16,0-4.46-2.01-4.46-4.99Z"/>
    <path class="cls-2" d="M327.24,165.03c0-4.2,2.98-6.62,6.19-6.62s6.21,2.42,6.21,6.62-2.98,6.64-6.21,6.64-6.19-2.44-6.19-6.64ZM335.59,165.03c0-2.09-.69-3.46-2.16-3.46s-2.16,1.37-2.16,3.46.69,3.46,2.16,3.46,2.16-1.35,2.16-3.46Z"/>
    <path class="cls-2" d="M342.15,158.71h3.21l.28,2.19h.1c.92-1.7,2.32-2.49,3.59-2.49.74,0,1.17.08,1.53.25l-.74,3.34c-.46-.1-.74-.15-1.3-.15-.94,0-2.09.61-2.75,2.29v7.23h-3.92v-12.65Z"/>
    <path class="cls-2" d="M352.21,154.89c0-1.22.92-2.01,2.21-2.01s2.22.79,2.22,2.01-.92,2.04-2.22,2.04-2.21-.79-2.21-2.04ZM352.46,158.71h3.92v12.65h-3.92v-12.65Z"/>
    <path class="cls-2" d="M359.6,158.71h3.21l.28,1.58h.1c1.04-1.02,2.32-1.88,4.05-1.88,2.75,0,3.92,1.96,3.92,5.12v7.84h-3.95v-7.33c0-1.76-.46-2.29-1.48-2.29-.89,0-1.43.43-2.22,1.14v8.48h-3.92v-12.65Z"/>
    <path class="cls-2" d="M373.48,173.51c0-1.04.61-1.88,1.78-2.5v-.1c-.66-.46-1.15-1.12-1.15-2.16,0-.89.59-1.81,1.4-2.39v-.1c-.89-.61-1.71-1.78-1.71-3.26,0-3.08,2.55-4.58,5.29-4.58.71,0,1.4.1,1.99.3h4.66v2.85h-1.99c.2.36.38.94.38,1.55,0,2.95-2.24,4.25-5.04,4.25-.43,0-.94-.08-1.5-.23-.28.25-.41.46-.41.87,0,.61.51.89,1.86.89h2.01c3.13,0,4.89.94,4.89,3.23,0,2.67-2.78,4.56-7.18,4.56-2.93,0-5.3-.92-5.3-3.18ZM382.19,172.82c0-.76-.66-.92-1.86-.92h-1.22c-.92,0-1.4-.05-1.78-.15-.41.36-.61.71-.61,1.12,0,.92,1.07,1.37,2.7,1.37s2.77-.61,2.77-1.43ZM380.71,162.99c0-1.3-.66-1.96-1.6-1.96s-1.6.66-1.6,1.96.69,2.01,1.6,2.01,1.6-.69,1.6-2.01Z"/>
  </g>
</svg>